<?xml version="1.0" standalone="no"?>
<!DOCTYPE svg PUBLIC "-//W3C//DTD SVG 20010904//EN"
 "http://www.w3.org/TR/2001/REC-SVG-20010904/DTD/svg10.dtd">
<svg version="1.0" xmlns="http://www.w3.org/2000/svg"
 width="512.000000pt" height="512.000000pt" viewBox="0 0 512.000000 512.000000"
 preserveAspectRatio="xMidYMid meet">
<metadata>
Created by potrace 1.11, written by Peter Selinger 2001-2013
</metadata>
<g transform="translate(0.000000,512.000000) scale(0.100000,-0.100000)"
fill="#000000" stroke="none">
<path d="M3845 4876 c-16 -7 -74 -61 -128 -119 -121 -131 -167 -157 -274 -157
-93 0 -160 22 -301 100 -135 75 -167 82 -202 45 -24 -26 -25 -31 -24 -163 1
-151 8 -183 98 -467 71 -222 75 -351 15 -419 -40 -46 -80 -60 -255 -91 -466
-81 -714 -191 -961 -428 -119 -115 -188 -202 -276 -349 -124 -206 -203 -419
-297 -798 -101 -408 -117 -443 -278 -607 -154 -158 -278 -239 -555 -361 -180
-80 -243 -118 -292 -175 -56 -66 -78 -136 -79 -252 -1 -123 18 -170 107 -257
105 -104 296 -177 352 -135 27 20 15 43 -75 141 -40 43 -78 94 -86 112 -35 83
-3 173 84 240 92 71 587 287 748 327 105 25 151 17 231 -44 l52 -39 727 0 727
0 -7 71 c-13 148 -55 180 -243 187 l-112 4 19 49 c67 170 199 389 286 476 l55
55 77 -3 c133 -7 178 -62 192 -238 12 -140 53 -243 152 -379 98 -135 277 -272
355 -272 60 0 99 41 122 128 16 59 -6 105 -99 207 -174 190 -224 335 -222 645
1 364 75 594 258 803 238 272 265 328 265 547 -1 116 -7 170 -36 280 -36 139
-36 267 -1 341 9 19 36 59 62 89 59 71 84 121 84 165 0 20 -11 95 -24 168 -14
73 -34 212 -45 310 -12 98 -28 191 -36 207 -33 64 -94 85 -160 56z"/>
<path d="M4091 3308 c-50 -233 -65 -351 -65 -503 -1 -145 0 -153 30 -226 37
-92 114 -212 218 -339 43 -52 91 -121 107 -152 39 -76 75 -204 94 -332 18
-122 21 -409 5 -480 -33 -150 -132 -238 -321 -284 -62 -15 -75 -22 -77 -40
l-3 -22 460 0 c385 0 461 2 461 14 0 21 -20 33 -90 50 -92 24 -169 61 -213
104 -89 86 -108 155 -108 384 1 253 39 467 110 606 16 31 64 100 107 152 104
127 181 247 218 339 30 74 31 81 30 226 -1 152 -16 274 -65 503 l-22 102 -427
0 -427 0 -22 -102z m806 -41 c18 -54 51 -294 59 -422 6 -102 4 -116 -20 -187
-34 -101 -98 -208 -167 -280 -194 -200 -437 -120 -590 195 -57 118 -65 165
-51 312 10 104 51 349 68 408 5 16 28 17 347 15 l342 -3 12 -38z"/>
<path d="M4180 2787 c0 -119 61 -257 157 -353 65 -64 111 -84 201 -84 119 0
199 55 284 195 50 84 68 143 68 230 l0 75 -355 0 -355 0 0 -63z"/>
</g>
</svg>
