<?xml version="1.0" standalone="no"?>
<!DOCTYPE svg PUBLIC "-//W3C//DTD SVG 20010904//EN"
 "http://www.w3.org/TR/2001/REC-SVG-20010904/DTD/svg10.dtd">
<svg version="1.0" xmlns="http://www.w3.org/2000/svg"
 width="700.000000pt" height="700.000000pt" viewBox="0 0 700.000000 700.000000"
 preserveAspectRatio="xMidYMid meet">
<metadata>
Created by potrace 1.11, written by Peter Selinger 2001-2013
</metadata>
<g transform="translate(0.000000,700.000000) scale(0.100000,-0.100000)"
fill="#000000" stroke="none">
<path d="M1184 6986 c-137 -33 -256 -162 -279 -302 -7 -45 -8 -6297 0 -6362 2
-24 18 -71 34 -105 52 -110 149 -184 268 -207 41 -8 711 -10 2333 -8 l2275 3
66 32 c62 31 159 117 159 143 0 7 -684 10 -2212 11 -1217 1 -2225 3 -2239 4
-50 6 -154 62 -198 106 -53 52 -100 149 -108 217 l-5 50 2248 0 c2481 0 2287
-5 2400 63 30 18 68 50 85 71 36 46 75 129 83 178 11 67 7 5762 -4 5819 -21
114 -114 225 -226 272 l-59 24 -2285 2 c-1798 1 -2296 -1 -2336 -11z m3518
-1513 c21 -20 26 -33 24 -65 -3 -37 -23 -59 -387 -424 -211 -211 -385 -389
-387 -394 -2 -4 25 -36 59 -70 l62 -62 386 386 c274 274 395 389 418 395 66
19 126 -44 109 -115 -3 -11 -179 -193 -391 -405 -211 -211 -385 -387 -385
-391 0 -7 119 -128 126 -128 2 0 177 173 389 385 225 225 396 387 410 391 62
15 115 -26 115 -89 0 -39 -8 -48 -387 -429 -214 -213 -389 -390 -391 -392 -3
-4 118 -126 126 -126 4 0 182 176 397 390 413 412 407 407 468 379 23 -10 38
-32 50 -69 3 -9 0 -28 -7 -43 -13 -33 -752 -776 -848 -853 -146 -118 -270
-169 -420 -173 -83 -2 -197 26 -267 65 -24 13 -47 24 -51 24 -4 0 -49 -43
-101 -96 l-95 -95 -122 122 -123 123 98 98 97 97 -21 38 c-67 120 -90 274 -59
401 22 86 70 184 133 269 65 87 859 881 886 886 33 6 59 -3 89 -30z m-2562
-228 c105 -16 183 -41 284 -92 111 -56 184 -109 277 -204 158 -158 251 -326
293 -527 20 -94 14 -249 -13 -332 l-20 -66 930 -929 c511 -512 939 -945 950
-962 37 -59 28 -154 -19 -206 -45 -50 -134 -68 -195 -40 -33 16 -493 471
-1679 1660 l-231 232 -61 -20 c-124 -41 -306 -35 -454 16 -148 50 -261 119
-384 234 -128 120 -221 257 -276 406 -60 163 -71 290 -37 454 9 46 72 166 110
209 63 72 181 141 272 158 104 20 168 23 253 9z m598 -2763 c-293 -294 -553
-547 -577 -563 -133 -87 -295 31 -256 185 12 46 43 79 566 602 l554 554 122
-122 123 -123 -532 -533z"/>
</g>
</svg>
